HIERARCHY
ROOT hips
{
  OFFSET 0 11.86390953 0.3628582958
  CHANNELS 6 Xposition Yposition Zposition Yrotation Xrotation Zrotation
  JOINT spine
  {
    OFFSET 0 0.05383551117999996 0
    CHANNELS 3 Yrotation Xrotation Zrotation
    JOINT chest
    {
      OFFSET 0 0.6394558760401424 0
      CHANNELS 3 Yrotation Xrotation Zrotation
      JOINT neck
      {
        OFFSET 0 2.720089088562982 0
        CHANNELS 3 Yrotation Xrotation Zrotation
        JOINT head
        {
          OFFSET 0 0.37880844870545777 0
          CHANNELS 3 Yrotation Xrotation Zrotation
          JOINT rightEye
          {
            OFFSET -0.42867780714 0.7547055649100001 0.7381831347
            CHANNELS 3 Yrotation Xrotation Zrotation
            End Site
            {
              OFFSET -0.42867780714 0.7547055649100001 0.7381831347
            }
          }
          JOINT leftEye
          {
            OFFSET 0.428676479 0.7547055559999993 0.7381844503
            CHANNELS 3 Yrotation Xrotation Zrotation
            End Site
            {
              OFFSET 0.428676479 0.7547055559999993 0.7381844503
            }
          }
          JOINT jaw
          {
            OFFSET -0.18933892286100001 1.5626303011000007 1.137441874206
            CHANNELS 3 Yrotation Xrotation Zrotation
            End Site
            {
              OFFSET -0.18933892286100001 1.5626303011000007 1.137441874206
            }
          }
        }
      }
      JOINT rightShoulder
      {
        OFFSET -0.6795351508 2.0665205 0
        CHANNELS 3 Yrotation Xrotation Zrotation
        JOINT rightUpperArm
        {
          OFFSET -0.7287400483531672 0 0
          CHANNELS 3 Yrotation Xrotation Zrotation
          JOINT rightLowerArm
          {
            OFFSET -1.9872982039174532 0 0
            CHANNELS 3 Yrotation Xrotation Zrotation
            JOINT rightHand
            {
              OFFSET -2.6451847532219275 0 0
              CHANNELS 3 Yrotation Xrotation Zrotation
              JOINT rightLittleProximal
              {
                OFFSET -0.8008804099999995 -0.09592044000000044 -0.26183688629999996
                CHANNELS 3 Yrotation Xrotation Zrotation
                JOINT rightLittleIntermediate
                {
                  OFFSET -0.2473955153999997 -0.02541697026000067 0.002370178700999967
                  CHANNELS 3 Yrotation Xrotation Zrotation
                  JOINT rightLittleDistal
                  {
                    OFFSET -0.163687229200001 -0.015790700860001117 -0.0004274845300000635
                    CHANNELS 3 Yrotation Xrotation Zrotation
                    End Site
                    {
                      OFFSET -0.163687229200001 -0.015790700860001117 -0.0004274845300000635
                    }
                  }
                }
              }
              JOINT rightRingProximal
              {
                OFFSET -0.8393382799999985 -0.06223833561000025 -0.09213143500000005
                CHANNELS 3 Yrotation Xrotation Zrotation
                JOINT rightRingIntermediate
                {
                  OFFSET -0.3284497260000011 -0.03264224524000103 0.009408593183000052
                  CHANNELS 3 Yrotation Xrotation Zrotation
                  JOINT rightRingDistal
                  {
                    OFFSET -0.19447660429999902 -0.021730899850000318 0.003074347969000052
                    CHANNELS 3 Yrotation Xrotation Zrotation
                    End Site
                    {
                      OFFSET -0.19447660429999902 -0.021730899850000318 0.003074347969000052
                    }
                  }
                }
              }
              JOINT rightMiddleProximal
              {
                OFFSET -0.8473005199999989 -0.06735503500000095 0.10541820299999995
                CHANNELS 3 Yrotation Xrotation Zrotation
                JOINT rightMiddleIntermediate
                {
                  OFFSET -0.3450455799999995 -0.02481901642000084 0.019012570390000032
                  CHANNELS 3 Yrotation Xrotation Zrotation
                  JOINT rightMiddleDistal
                  {
                    OFFSET -0.23542332000000088 -0.025003910029999243 0.0075583457949999905
                    CHANNELS 3 Yrotation Xrotation Zrotation
                    End Site
                    {
                      OFFSET -0.23542332000000088 -0.025003910029999243 0.0075583457949999905
                    }
                  }
                }
              }
              JOINT rightIndexProximal
              {
                OFFSET -0.8008568281999987 -0.09897839600000169 0.29462796
                CHANNELS 3 Yrotation Xrotation Zrotation
                JOINT rightIndexIntermediate
                {
                  OFFSET -0.30524754480000016 -0.024634122809999992 0.02743375304999998
                  CHANNELS 3 Yrotation Xrotation Zrotation
                  JOINT rightIndexDistal
                  {
                    OFFSET -0.23067378950000017 -0.016876459159999913 0.008484125099999983
                    CHANNELS 3 Yrotation Xrotation Zrotation
                    End Site
                    {
                      OFFSET -0.23067378950000017 -0.016876459159999913 0.008484125099999983
                    }
                  }
                }
              }
              JOINT rightThumbProximal
              {
                OFFSET -0.25574064999999935 -0.12833189930000155 0.22385698609999993
                CHANNELS 3 Yrotation Xrotation Zrotation
                JOINT rightThumbIntermediate
                {
                  OFFSET -0.22791743260000086 -0.07103586192999978 0.27385039
                  CHANNELS 3 Yrotation Xrotation Zrotation
                  JOINT rightThumbDistal
                  {
                    OFFSET -0.13610267659999975 -0.03369390969999997 0.14246511509999996
                    CHANNELS 3 Yrotation Xrotation Zrotation
                    End Site
                    {
                      OFFSET -0.13610267659999975 -0.03369390969999997 0.14246511509999996
                    }
                  }
                }
              }
            }
          }
        }
      }
      JOINT leftShoulder
      {
        OFFSET 0.6795338396 2.0665205 0
        CHANNELS 3 Yrotation Xrotation Zrotation
        JOINT leftUpperArm
        {
          OFFSET 0.7287383950230443 0 0
          CHANNELS 3 Yrotation Xrotation Zrotation
          JOINT leftLowerArm
          {
            OFFSET 1.9872997282019604 0 0
            CHANNELS 3 Yrotation Xrotation Zrotation
            JOINT leftHand
            {
              OFFSET 2.6451820781302327 0 0
              CHANNELS 3 Yrotation Xrotation Zrotation
              JOINT leftLittleProximal
              {
                OFFSET 0.8008804099999995 -0.09592306899999814 -0.2618342639000001
                CHANNELS 3 Yrotation Xrotation Zrotation
                JOINT leftLittleIntermediate
                {
                  OFFSET 0.2473981400000007 -0.02542352681000093 0.0023609995859999455
                  CHANNELS 3 Yrotation Xrotation Zrotation
                  JOINT leftLittleDistal
                  {
                    OFFSET 0.1636846068000002 -0.015794634789999318 -0.00043272972159996703
                    CHANNELS 3 Yrotation Xrotation Zrotation
                    End Site
                    {
                      OFFSET 0.1636846068000002 -0.015794634789999318 -0.00043272972159996703
                    }
                  }
                }
              }
              JOINT leftRingProximal
              {
                OFFSET 0.8393409199999996 -0.062242267999998324 -0.0921281570000001
                CHANNELS 3 Yrotation Xrotation Zrotation
                JOINT leftRingIntermediate
                {
                  OFFSET 0.3284471036000003 -0.03264224524000103 0.009405970574000042
                  CHANNELS 3 Yrotation Xrotation Zrotation
                  JOINT leftRingDistal
                  {
                    OFFSET 0.1944779099999996 -0.021732211159998904 0.003073036670000001
                    CHANNELS 3 Yrotation Xrotation Zrotation
                    End Site
                    {
                      OFFSET 0.1944779099999996 -0.021732211159998904 0.003073036670000001
                    }
                  }
                }
              }
              JOINT leftMiddleProximal
              {
                OFFSET 0.8473005200000001 -0.06736028199999788 0.1054214809999999
                CHANNELS 3 Yrotation Xrotation Zrotation
                JOINT leftMiddleIntermediate
                {
                  OFFSET 0.3450455799999995 -0.024824261000000014 0.019013225990000007
                  CHANNELS 3 Yrotation Xrotation Zrotation
                  JOINT leftMiddleDistal
                  {
                    OFFSET 0.2354259489999998 -0.025005222000000327 0.0075590014499999705
                    CHANNELS 3 Yrotation Xrotation Zrotation
                    End Site
                    {
                      OFFSET 0.2354259489999998 -0.025005222000000327 0.0075590014499999705
                    }
                  }
                }
              }
              JOINT leftIndexProximal
              {
                OFFSET 0.8008594516999996 -0.09898495199999946 0.29463124239999994
                CHANNELS 3 Yrotation Xrotation Zrotation
                JOINT leftIndexIntermediate
                {
                  OFFSET 0.30524754480000016 -0.024632811499998963 0.02743047472
                  CHANNELS 3 Yrotation Xrotation Zrotation
                  JOINT leftIndexDistal
                  {
                    OFFSET 0.23067378950000017 -0.016876459159999913 0.008481502700000004
                    CHANNELS 3 Yrotation Xrotation Zrotation
                    End Site
                    {
                      OFFSET 0.23067378950000017 -0.016876459159999913 0.008481502700000004
                    }
                  }
                }
              }
              JOINT leftThumbProximal
              {
                OFFSET 0.25574326469999953 -0.12833321050000013 0.22385764169999997
                CHANNELS 3 Yrotation Xrotation Zrotation
                JOINT leftThumbIntermediate
                {
                  OFFSET 0.22804987480000094 -0.07138466829999968 0.273648441
                  CHANNELS 3 Yrotation Xrotation Zrotation
                  JOINT leftThumbDistal
                  {
                    OFFSET 0.13614857189999907 -0.033867001519998885 0.14238119169999996
                    CHANNELS 3 Yrotation Xrotation Zrotation
                    End Site
                    {
                      OFFSET 0.13614857189999907 -0.033867001519998885 0.14238119169999996
                    }
                  }
                }
              }
            }
          }
        }
      }
    }
  }
  JOINT rightUpperLeg
  {
    OFFSET -0.9749898906000001 -1.8495733739999998 0
    CHANNELS 3 Yrotation Xrotation Zrotation
    JOINT rightLowerLeg
    {
      OFFSET 0 -4.1566544686813165 0
      CHANNELS 3 Yrotation Xrotation Zrotation
      JOINT rightFoot
      {
        OFFSET 0.14539718599999998 -4.225553926 -0.3666210900000001
        CHANNELS 3 Yrotation Xrotation Zrotation
        JOINT rightToes
        {
          OFFSET 0.1706738473 -0.9584117400000015 1.0093348617
          CHANNELS 3 Yrotation Xrotation Zrotation
          End Site
          {
            OFFSET 0.1706738473 -0.9584117400000015 1.0093348617
          }
        }
      }
    }
  }
  JOINT leftUpperLeg
  {
    OFFSET 0.9749898906000001 -1.8495733739999998 0
    CHANNELS 3 Yrotation Xrotation Zrotation
    JOINT leftLowerLeg
    {
      OFFSET 0 -4.156653488267941 0
      CHANNELS 3 Yrotation Xrotation Zrotation
      JOINT leftFoot
      {
        OFFSET -0.14537357999999995 -4.225555399999999 -0.36661124279999996
        CHANNELS 3 Yrotation Xrotation Zrotation
        JOINT leftToes
        {
          OFFSET -0.17066467000000002 -0.9584157000000019 1.0093348617
          CHANNELS 3 Yrotation Xrotation Zrotation
          End Site
          {
            OFFSET -0.17066467000000002 -0.9584157000000019 1.0093348617
          }
        }
      }
    }
  }
}
MOTION
Frames: 4
Frame Time: 0.03333333333333333
0.7630472183227539 -0.13080863888671956 0.1357181966304779 -6.853974210698656 -1.503042387946158 -0.8621424629146633 5.914166064703409 -3.3505671058662947 -8.21347610535834 1.5472715450232073 6.574816375951679 1.5118790357928373 -5.363636696099418 10.029336178915077 0.054305305360381334 -31.049675783030644 14.519100531114463 -0.2592586591438984 0 0 0 0 0 0 0 0 0 0.36680528806030704 0.6579905981743965 12.76979818536909 -19.454827668384794 -15.95755319733317 65.81772279751398 76.8609253909313 0.5719180985934003 -0.7207224147230791 40.402127568738834 44.87406353645973 7.750255246339819 -25.01735336980147 7.504414676222509 48.71139443274907 -1.7476037592192053 0.37823215637387886 27.74053155759601 -1.1392344635331326 0.12378464181954571 15.954668374386664 -8.652811878790894 5.802946262705497 52.070508563739345 -1.650556284572621 0.3558053569446374 24.47678265111741 -0.21885922444067218 0.006497396304133991 3.0097092374096897 -3.960854679127186 -0.4709990349016659 55.12477888915115 -0.8722417037024097 0.11152457979994662 14.287366624018107 -1.0174233927287628 0.12372953327016936 14.470446531325782 8.292624515835922 -0.13150920474015398 46.916412007044464 -1.011683894916238 0.13771652980917676 15.378563167312238 -0.8762635174293855 0.09670788729396042 12.753207426045178 7.464908144727608 -11.526002700319266 15.269551001639671 -24.747599032796607 11.894353395536333 -20.337918049761672 -27.19765867562596 -11.085078616451419 -11.342203090796367 2.2475365617576037 0.7260223272504868 -12.72002259811527 10.387065987193042 -4.011619893581654 -70.54474178636272 -14.474336106085532 0.023472969600723807 0.1849818182594605 -4.656830335605315 41.854853554858686 5.163790861217224 6.1272879734972845 1.426212444600143 -36.557542207359674 3.0913148231822363 1.2190579062615832 -38.04382972080733 1.9897249964447576 0.4915646597330125 -23.130920840189717 4.212728520077724 0.3326399786277594 -30.62501212968274 3.40081028291013 1.2910009034543821 -41.54980543251315 2.1250831292154615 0.4616425931414656 -24.494153706737553 3.342884506256423 -0.009166343190173233 -25.188799742114565 3.1629372935672286 1.089274601981866 -38.05209999326471 2.1717467646151287 0.4822764409844337 -25.03949199365312 -0.24343319493715196 0.19272670400937056 -17.036083305154655 3.168406843030508 1.0924475864753698 -38.01827587979189 1.2897425324234624 0.1667730044792275 -14.662868100737485 2.8657453452105623 -0.44942812128704335 4.920029516594242 25.17519317582864 10.527089016585839 21.57023072129181 3.0330601473286687 -13.944219019848152 8.175430673170574 -15.11106542598238 -5.886858094284504 -3.4855006620645637 6.477513709729077 13.458130084546315 1.5036285331336534 -0.29481872995338426 -5.918337998500352 3.4653736222478373 0.0000035032721844846353 -0.3016615275294927 -5.858548077224267e-7 9.7434021401016 -8.266601437955055 2.582244551357877 10.7518163862214 20.684710217703792 4.4064590066978795 4.598061953392229 -9.150264953351178 -6.7543706421794605 0.0000047000233544243674 -0.4345508062007345 0.000001764065798751403
0.7275263667106628 -0.13451652462890706 0.15635988116264343 -6.623063135443444 -1.312051214503997 -0.728981450077299 5.672700786205522 -3.651572603481002 -8.438967273974974 1.4757035747929634 6.307023806327821 1.3958566706622801 -5.629235564459663 9.783950775573212 0.27835837835543037 -32.53654617817356 14.01358922412707 0.906324338248702 0 0 0 0 0 0 0 0 0 0.273707087873568 0.6612360602328523 12.796454704924571 -19.009237521447965 -15.812046248847672 63.34515452170458 78.9602295067764 0.5984478305298255 -0.7264167052909782 52.74302636243946 53.12270475764715 19.193393003689007 -24.93745569174449 9.120478048297208 56.142381932242145 -1.9218599946105215 0.46656678746952224 30.589880709583692 -0.9829733197032254 0.0867669010581281 13.610845812640234 -8.106982558133362 6.029391228715036 58.67481866224246 -1.7116650485246374 0.38440726439017664 25.46197117647484 -0.013698174238150057 0.00001711746235349244 0.011810952710022093 -4.553554347145208 -0.012403476053514289 60.991299830737745 -0.9202975277037715 0.12356083254093315 15.0106017462076 -1.031098836477312 0.1272782652851743 14.676594976305767 6.897367665608819 0.03541249204851092 51.52099231292445 -1.0623740735665346 0.15188086663199007 16.147046170429903 -0.8416372000304403 0.08903519354277024 12.235210571042085 7.913439434167129 -8.489160535901464 18.310971520795817 -27.627532747148955 11.290210434836307 -21.21593705635918 -31.979766256778124 -10.15322805411368 -11.480975340942935 2.2382544493912193 0.7186632808050433 -12.571453333443934 10.709153553883517 -3.2723775139744076 -70.41980958719824 -14.464586127472355 0.02343625232827857 0.1848853156504495 -3.7833562725907406 40.91613619668078 5.873369294151838 6.127293068452888 1.4261977124408813 -36.557542207359674 3.09132228451967 1.2190693280693126 -38.04380995492209 1.989709305320087 0.4915607108845702 -23.130939226763164 4.212732351743365 0.33263069368288334 -30.62500451233413 3.4008055942341797 1.290994925521429 -41.54980769822093 2.1250903815359754 0.46164985045302703 -24.494164446230425 3.3428876885181573 -0.009155588476888302 -25.188792107933804 3.1629277262048205 1.089272680643954 -38.05209040311831 2.1717538034379387 0.48227339930806706 -25.03950880866847 -0.24342148226962362 0.19272063417801655 -17.036074141464805 3.1684074824981763 1.0924449179476785 -38.018295058722146 1.2897269549362411 0.1667671214202754 -14.662858976553153 2.865738523352994 -0.449442689248066 4.920020159400316 25.175191604023365 10.527100305653834 21.57023072129181 3.0330572923162795 -13.944229576220057 8.175442993794944 -15.117560772936447 -6.064020856178612 -3.45246918344821 6.26156063830301 13.814615143678814 1.5107892490696384 -0.3205026257449179 -6.419955427510214 3.3926234131007136 -0.000005722904590149472 -0.17139318066446163 0.0000017575520440771914 9.776876797492273 -8.355237889103144 2.6360976204818147 10.751273787659418 20.664356919108048 4.387804198949706 4.314230084531715 -9.178898049342994 -6.911683926998913 0.0000062055490722531225 -0.4328829649587471 -0.0000021198754869719814
0.6947914958000183 -0.13910465176513753 0.17400474846363068 -6.458595583029179 -1.0821978957779845 -0.6180329853413424 5.455971375082005 -3.8940671623063436 -8.703306435695543 1.4267668017825865 5.9531751829493205 1.3607579080233132 -5.921280642620109 9.484327557385884 0.529295226731099 -34.181342392834395 13.445316890712363 2.3141877532235546 0 0 0 0 0 0 0 0 0 0.23354565735914953 0.6626190523876562 12.80771324974323 -18.487344940237136 -15.646103245767573 60.77142710590196 80.82907698292762 0.6221991333244944 -0.7306498394493909 61.05290521396177 56.125398231216536 27.275153392666645 -24.9192863679319 9.330563589209316 57.11148630156403 -1.9440103759615952 0.4785922248198077 30.957744863015435 -0.9627022518531213 0.08245127067303555 13.308213692604594 -8.042546976448444 6.0584259627067985 59.52983346289203 -1.7195400844764814 0.38817665398669876 25.58958791763064 0.012808352882109238 -0.00004711388442443426 -0.3752534130245728 -4.628605436486855 0.059767187634974045 61.74714093359875 -0.9264712817880041 0.12515832683729836 15.10374806649954 -1.0328504750371066 0.127734435005899 14.703229368843875 6.705086773045735 0.07519610880004643 52.106888864961086 -1.0689039113117806 0.1537502773807311 16.246265061696647 -0.8371416082036118 0.08807196229656601 12.168304876985164 7.989693824752777 -8.100277158123209 18.703690745501735 -28.002215570391193 11.198142105968062 -21.303117997735978 -32.586395675163935 -9.993857809364405 -11.52911280855179 2.198896502629672 0.7078025986202793 -12.366701704099572 10.753687784625484 -2.668253973286996 -70.41773449668122 -14.359761429498288 0.0230965604458219 0.18355905646592693 -3.048516207115541 39.83426382275325 6.50736554974368 6.127293493032517 1.4261907733803922 -36.55754973023362 3.0913173813550827 1.2190711427490497 -38.04383931122258 1.9897133584488633 0.49156289876005826 -23.130931603811135 4.212734480446482 0.3326214620997681 -30.624999833791595 3.4008122010048236 1.2910120053299037 -41.54980769822093 2.125069351149348 0.46163128027345823 -24.49415215281294 3.342889180079804 -0.0091638018795218 -25.188792107933804 3.16293750672402 1.089272573902959 -38.05209040311831 2.171749537484728 0.48228236424894083 -25.03947981999949 -0.24342940632943433 0.192713417081838 -17.03606661040545 3.1684175008248707 1.0924612493371852 -38.01829026398943 1.2897343168994038 0.1667630259574685 -14.662852368781254 2.865738949719095 -0.449444983835336 4.920014204822226 25.175197891244217 10.527082069467278 21.570259117720884 3.0330612454103534 -13.94422605742937 8.175422465982596 -15.11993072200695 -6.364128881343796 -3.384062827383108 6.123610581478039 14.26777252164425 1.5433951256341933 -0.34135023929689495 -6.863431290112672 3.2440917869792965 -0.0000031904961340068177 -0.10764014939820636 1.8363709540096594e-8 9.791828795597334 -8.527833525984008 2.6852939576425072 10.756604480230088 20.702156510456568 4.385503513391074 4.111672665264965 -9.221970097510619 -7.071806358277697 0.000005164188425921897 -0.4310465256958318 -0.0000019824017147038915
0.6642526984214783 -0.14374904568603597 0.1891997754573822 -6.3471497147452824 -0.8086044857338476 -0.5117120402646841 5.237698245824314 -4.061025669791448 -8.973140781236822 1.3916436133395949 5.493158784431705 1.3898280384838955 -6.200255432137692 9.1225481603126 0.8157537858039665 -35.73532288544663 12.803555560482963 3.986851896721165 0 0 0 0 0 0 0 0 0 0.2404084561356329 0.6623625296201248 12.805593908319151 -18.01544816673343 -15.40889717862797 58.26874068194327 82.51323258818424 0.6437455863150433 -0.7338030311329408 63.30000078998317 56.48742570043635 29.87819899445022 -24.930194497131296 9.141514370051276 56.25328023776162 -1.924199154329675 0.46783142836519226 30.62901575941439 -0.9808295895363945 0.08630134709600569 13.57866606470759 -8.103517332193112 6.038560330508883 58.76739716631129 -1.712534633304477 0.3848236485067503 25.476008168668038 -0.010877466323799781 -0.000010016035480244277 -0.0293602961190491 -4.565095295783305 0.0015856786085731284 61.07048547130499 -0.9209556549316529 0.12372994681774352 15.020299075276045 -1.0312768813525335 0.12732062056669696 14.679430395454753 6.859707982653243 0.041891191423118875 51.57528220616894 -1.06304058498744 0.15208239794215012 16.157604059751023 -0.8411652800268186 0.08893863696300927 12.228090462854292 7.923996121897525 -8.449877746181981 18.354189480710513 -27.671291852326938 11.270885892716105 -21.20062379676696 -32.03436897848918 -10.097905886398346 -11.515101002986851 2.1131212001613906 0.6934357690292424 -12.10949634162186 10.53975369116298 -2.148898778971234 -70.51819352212016 -14.217568817488013 0.022644787418936267 0.1817785495774522 -2.5581551450819506 38.77111288054415 6.953985081255788 6.127285001439805 1.4261810586957426 -36.55756681074397 3.091326334959947 1.2190855534411233 -38.043827030676326 1.9897082387072473 0.4915626853087911 -23.130930033476478 4.212727242855836 0.3326215154615202 -30.62500451233413 3.4008134797346146 1.2909896948301065 -41.549802876077656 2.125085475554459 0.4616458482591504 -24.494166000154838 3.342889606240273 -0.009177005355728065 -25.18881037494538 3.162936654096855 1.0892805794775993 -38.0520829183403 2.171744844936169 0.4822774548765561 -25.03949354077357 -0.24342705845986173 0.19270030357806855 -17.03607740672515 3.168415369266016 1.0924499347797396 -38.018280674524306 1.2897304758751502 0.16677420510350363 -14.66286479685166 2.865738523352994 -0.4494498931848462 4.920018458092301 25.175186982804263 10.527087279806185 21.570237181887105 3.0330520215241368 -13.944223418336389 8.175439881133828 -15.11918480592845 -6.760711770992084 -3.3000796987121532 6.0370523121519115 14.76005828867181 1.5900930795985444 -0.3549990546326751 -7.2362783991944895 3.071443111927651 -0.000004152528449603341 -0.10093221216719064 8.928566680784374e-7 9.801838480436082 -8.757475951731312 2.714742814602816 10.763142414667621 20.743867459831907 4.387219128714918 3.9657555440378065 -9.25201985473508 -7.2271979148850765 0.000004098410294346617 -0.43139434158575746 -0.0000026988078523905627
